<?xml version="1.0" encoding="UTF-8"?>
<svg xmlns="http://www.w3.org/2000/svg" xmlns:xlink="http://www.w3.org/1999/xlink" version="1.1" id="Capa_1" x="0px" y="0px" viewBox="0 0 512 512" style="enable-background:new 0 0 512 512;" xml:space="preserve" width="512" height="512">
<g>
	<path style="fill:#0055A3;" d="M473.969,504.5H317.594c-8.284,0-15-6.716-15-15v-16.062l93.188-15.531l93.188,15.531V489.5&#10;&#9;&#9;C488.969,497.784,482.253,504.5,473.969,504.5z"/>
	<path style="fill:#46CC8D;" d="M270.566,146.647l-88.234,88.234l-44.305-44.305c-5.858-5.858-15.355-5.858-21.213,0l-11.734,11.734&#10;&#9;&#9;c-5.858,5.858-5.858,15.355,0,21.213l66.645,66.647c5.858,5.858,15.355,5.858,21.213,0l110.575-110.575&#10;&#9;&#9;c5.858-5.858,5.858-15.355,0-21.213l-11.735-11.735C285.921,140.789,276.424,140.789,270.566,146.647z"/>
	<path style="fill:#00C27A;" d="M303.514,158.381l-11.735-11.734c-5.858-5.858-15.355-5.858-21.213,0l-6.893,6.893l4.841,4.841&#10;&#9;&#9;c5.858,5.858,5.858,15.355,0,21.213L164.833,283.276l6.893,6.893c5.858,5.858,15.355,5.858,21.213,0l110.575-110.575&#10;&#9;&#9;C309.372,173.737,309.372,164.239,303.514,158.381z"/>
	<path style="fill:#46CC8D;" d="M209.406,7.5C97.896,7.5,7.5,97.896,7.5,209.406s90.396,201.906,201.906,201.906&#10;&#9;&#9;s201.906-90.396,201.906-201.906S320.916,7.5,209.406,7.5z M209.406,364.719c-85.777,0-155.312-69.536-155.312-155.312&#10;&#9;&#9;S123.63,54.094,209.406,54.094s155.312,69.536,155.312,155.312S295.183,364.719,209.406,364.719z"/>
	<path style="fill:#00C27A;" d="M279.039,19.829c55.531,35.975,92.274,98.485,92.274,169.577&#10;&#9;&#9;c0,111.51-90.396,201.906-201.906,201.906c-24.472,0-47.927-4.354-69.632-12.329c31.571,20.453,69.215,32.329,109.632,32.329&#10;&#9;&#9;c111.51,0,201.906-90.396,201.906-201.906C411.312,122.368,356.239,48.194,279.039,19.829z"/>
	<path style="fill:#FE9738;" d="M446.109,361.736c16.879-14.378,27.527-35.853,27.326-59.81&#10;&#9;&#9;c-0.35-41.666-34.125-75.986-75.781-76.967c-43.744-1.03-79.529,34.123-79.529,77.634c0,23.796,10.703,45.092,27.557,59.337&#10;&#9;&#9;c12.202,10.313,19.036,25.632,19.036,41.609v13.836c0,13.807-11.193,25-25,25h-32.656c-11.046,0-20,8.954-20,20v11.062H504.5&#10;&#9;&#9;v-11.062c0-11.046-8.954-20-20-20h-32.656c-13.807,0-25-11.193-25-25v-13.839C426.844,387.455,433.867,372.164,446.109,361.736z"/>
	<circle style="fill:#FE860A;" cx="395.781" cy="325.359" r="23.297"/>
	<path style="fill:#FE860A;" d="M484.5,442.375h-20c0,6.11-4.953,11.062-11.062,11.062H289.166c-1.346,2.69-2.104,5.725-2.104,8.938&#10;&#9;&#9;v11.062H504.5v-11.062C504.5,451.329,495.546,442.375,484.5,442.375z"/>
	<circle style="fill:#B2CAEC;" cx="395.781" cy="310.359" r="23.297"/>
	<path style="fill:none;stroke:#000000;stroke-width:15;stroke-linecap:round;stroke-linejoin:round;stroke-miterlimit:10;" d="&#10;&#9;&#9;M488.969,473.438V489.5c0,8.284-6.716,15-15,15H317.594c-8.284,0-15-6.716-15-15v-16.062"/>
	<path style="fill:none;stroke:#000000;stroke-width:15;stroke-linecap:round;stroke-linejoin:round;stroke-miterlimit:10;" d="&#10;&#9;&#9;M241.051,176.162l-58.718,58.718l-44.305-44.305c-5.858-5.858-15.355-5.858-21.213,0l-11.734,11.734&#10;&#9;&#9;c-5.858,5.858-5.858,15.355,0,21.213l66.645,66.647c5.858,5.858,15.355,5.858,21.213,0l110.575-110.575&#10;&#9;&#9;c5.858-5.858,5.858-15.355,0-21.213l-11.735-11.735c-5.858-5.858-15.355-5.858-21.213,0l-4.327,4.327"/>
	<path style="fill:none;stroke:#000000;stroke-width:15;stroke-linecap:round;stroke-linejoin:round;stroke-miterlimit:10;" d="&#10;&#9;&#9;M453.774,251.115c-13.861-15.592-33.866-25.631-56.121-26.155c-43.744-1.03-79.529,34.123-79.529,77.634&#10;&#9;&#9;c0,23.796,10.703,45.092,27.557,59.337c12.202,10.313,19.036,25.632,19.036,41.609v13.836c0,13.807-11.193,25-25,25h-32.656&#10;&#9;&#9;c-11.046,0-20,8.954-20,20v11.062H504.5v-11.062c0-11.046-8.954-20-20-20h-32.656c-13.807,0-25-11.193-25-25v-13.839&#10;&#9;&#9;c0-16.081,7.023-31.372,19.265-41.8c16.879-14.378,27.527-35.853,27.326-59.81c-0.059-6.966-1.051-13.727-2.859-20.162"/>
	
		<line style="fill:none;stroke:#000000;stroke-width:15;stroke-linecap:round;stroke-linejoin:round;stroke-miterlimit:10;" x1="380.25" y1="442.375" x2="411.312" y2="442.375"/>
	
		<circle style="fill:none;stroke:#000000;stroke-width:15;stroke-linecap:round;stroke-linejoin:round;stroke-miterlimit:10;" cx="395.781" cy="310.359" r="23.297"/>
	<path style="fill:none;stroke:#000000;stroke-width:15;stroke-linecap:round;stroke-linejoin:round;stroke-miterlimit:10;" d="&#10;&#9;&#9;M148.459,401.951c19.23,6.081,39.706,9.362,60.947,9.362c51.557,0,98.6-19.325,134.283-51.126"/>
	<path style="fill:none;stroke:#000000;stroke-width:15;stroke-linecap:round;stroke-linejoin:round;stroke-miterlimit:10;" d="&#10;&#9;&#9;M410.61,226.365c0.465-5.592,0.703-11.248,0.703-16.959C411.312,97.896,320.916,7.5,209.406,7.5S7.5,97.896,7.5,209.406&#10;&#9;&#9;c0,77.693,43.882,145.136,108.213,178.897"/>
	<path style="fill:none;stroke:#000000;stroke-width:15;stroke-linecap:round;stroke-linejoin:round;stroke-miterlimit:10;" d="&#10;&#9;&#9;M319.79,318.664c-28.149,28.438-67.209,46.055-110.384,46.055c-85.777,0-155.312-69.536-155.312-155.312&#10;&#9;&#9;S123.63,54.094,209.406,54.094s155.312,69.536,155.312,155.312c0,7.724-0.564,15.317-1.653,22.739"/>
</g>















</svg>
