<svg id="Layer_1" enable-background="new 0 0 512 512" viewBox="0 0 512 512" xmlns="http://www.w3.org/2000/svg"><g clip-rule="evenodd" fill-rule="evenodd"><path d="m171.2 43.3h222.3c13.6 0 24.7 11.1 24.7 24.6v269.6c0 13.5-11.1 24.6-24.7 24.6h-222.3c-13.5 0-24.6-11.1-24.6-24.6v-269.5c0-13.6 11-24.7 24.6-24.7z" fill="#73d2de"/><path d="m383.9 344.8h7.4c14.8 0 26.8-12.1 26.8-26.8 0-28.2 0-38.9 0-79.7 20 22.5 45.1 48.5 57.3 66.8 8.6 12.9 9.9 16.5 2.4 36.2-16.4 43.2-30 56.2-34.4 104.6h-83.4c-7.7-40-23.6-76-23.6-78.3 0-26.2 5.8-53.7 8.9-79.8 3.6-30 38.5-27.2 38.5 1 .1 24.5.1 31.5.1 56z" fill="#fedc97"/><path d="m348.2 445.9h110.9v29.6h-110.9z" fill="#dd6e42"/><path d="m178.2 218.4-8.1-21.4h-29.3l-8 21.4c-11.9 2.6-23 7.3-32.9 13.6l-20.8-9.4-20.7 20.7 9.4 20.8c-6.3 10-11 21.1-13.6 32.9l-21.4 8v29.3l21.4 8c2.6 11.9 7.3 23 13.6 32.9l-9.4 20.8 20.7 20.7 20.8-9.5c9.9 6.3 21 11 32.9 13.7l8 21.4h29.3l8.1-21.4c11.8-2.7 23-7.3 32.9-13.7l20.8 9.5 20.7-20.7-9.5-20.8c6.3-9.9 11-21.1 13.7-32.9l21.4-8v-29.3l-21.4-8c-2.6-11.9-7.3-23-13.7-32.9l9.5-20.8-20.7-20.7-20.8 9.4c-10-6.3-21.1-10.9-32.9-13.6z" fill="#00b2ca"/><path d="m155.5 251.7c37.6 0 68 30.4 68 68s-30.4 68-68 68c-37.5 0-68-30.4-68-68 0-37.5 30.5-68 68-68z" fill="#73d2de"/><path d="m296.6 128.3h-28.5c-20.1 0-36.6 19.7-36.6 43.7v19.5h101.7v-19.5c0-24-16.4-43.7-36.6-43.7z" fill="#fbb13c"/><path d="m282.4 68.4c-18.1 0-32.8 14.7-32.8 32.9 0 18.1 14.7 32.8 32.8 32.8s32.9-14.7 32.9-32.8c-.1-18.2-14.8-32.9-32.9-32.9z" fill="#fbd1a2"/></g><path d="m282.4 76.4c-22.1 0-33.2 26.8-17.6 42.4 1.5 1.5 9 6.3 16.7 6.3 8.2.1 16.7-4.6 18.4-6.3 15.7-15.6 4.6-42.4-17.5-42.4zm-28.9-4c16-16 41.8-16 57.8 0 14.2 14.2 16 36.5 4.2 52.8 16.2 8.8 25.7 27.6 25.7 46.9v19.5c0 4.4-3.6 8-8 8h-101.7c-4.4 0-8-3.6-8-8v-19.5c0-19.3 9.5-38 25.7-46.9-11.7-16.3-9.9-38.6 4.3-52.8zm48.7 64.6c-5.9 3.2-12.6 5.1-19.8 5.1s-13.9-1.9-19.8-5.1c-5.4 1.4-10.3 4.6-14.2 9.3-5.5 6.5-8.9 15.7-8.9 25.8v11.5h85.7v-11.5c0-15.5-8.6-31.5-23-35.1zm-180.1 185c-2.9-3.3-2.6-8.3.7-11.3 3.3-2.9 8.3-2.6 11.3.7l12.4 14 30.4-35.1c2.9-3.3 7.9-3.7 11.3-.8 3.3 2.9 3.7 7.9.8 11.3l-36.3 42c-3.1 3.6-8.8 3.7-12 .1zm33.4-78.3c42 0 76 34 76 76s-34 76-76 76-76-34-76-76 34-76 76-76zm42.4 33.6c-23.4-23.4-61.4-23.4-84.8 0s-23.4 61.4 0 84.8 61.4 23.4 84.8 0 23.4-61.4 0-84.8zm-27.2-56.1-6.1-16.2h-18.2l-6.1 16.2c-1 2.7-3.3 4.5-5.9 5-10.4 2.2-21.2 6.9-30.2 12.6-2.5 1.6-5.5 1.6-7.9.4l-15.4-7-12.9 12.9 7.2 15.8c1.1 2.5.9 5.4-.5 7.5-3.2 5-5.4 9.3-7.6 14.7-2.1 5.1-3.8 10.3-5 15.7-.6 2.7-2.6 4.8-5 5.7l-16.2 6.1v18.2l16.2 6.1c2.7 1 4.5 3.3 5 5.9 2.2 10.4 6.9 21.2 12.6 30.2 1.6 2.5 1.6 5.5.4 7.9l-7 15.4 12.9 12.8 15.8-7.1c2.5-1.2 5.4-.9 7.5.5 9.3 5.9 19.6 10.2 30.4 12.6 2.7.6 4.8 2.6 5.7 5l6.1 16.2h18.2l6.1-16.2c1-2.7 3.3-4.5 5.9-5 10.5-2.2 21.2-6.8 30.2-12.6 2.5-1.6 5.5-1.6 7.9-.4l15.4 7 12.8-12.8-7.1-15.8c-1.2-2.6-.9-5.4.5-7.6 5.9-9.3 10.3-19.7 12.6-30.4.6-2.8 2.6-4.8 5-5.8l16.2-6.1v-18.2l-16.2-6.1c-2.7-1-4.5-3.3-5-5.9-2.2-10.5-6.8-21.2-12.6-30.2-1.6-2.5-1.6-5.4-.4-7.9l7-15.4-12.8-12.9-15.8 7.2c-2.6 1.1-5.4.9-7.6-.5-9.3-5.9-19.6-10.2-30.4-12.6-2.7-.5-4.8-2.4-5.7-4.9zm6.9-26.9 6.5 17.4c9.7 2.6 18.9 6.4 27.5 11.4l16.5-7.5c3-1.6 6.9-1.1 9.4 1.4l20.7 20.7c2.3 2.3 3 5.8 1.6 8.9l-7.7 17c5 8.6 8.8 17.8 11.4 27.5l16.8 6.3c3.4.9 5.9 4.1 5.9 7.7v29.3c0 3.2-2 6.3-5.2 7.5l-17.4 6.5c-.5 2-1.1 4-1.7 5.9h67.2c1.4-22.6 5.8-45 8.5-67.4 2.1-17.8 14.3-29.2 29.1-28.3 14.4.9 25.4 13.2 25.4 30.3v48c10-.3 18.2-8.7 18.2-18.9v-250c0-9.1-7.5-16.6-16.6-16.6h-222.5c-9.1 0-16.6 7.5-16.6 16.6v121h15.6c3.2.1 6.2 2.1 7.4 5.3zm77.6 175.9c-1 1.9-2 3.8-3 5.6l7.5 16.5c1.6 3 1.1 6.9-1.4 9.4l-20.7 20.7c-2.3 2.3-5.8 3-8.9 1.6l-17-7.7c-8.6 5-17.8 8.8-27.5 11.4l-6.3 16.8c-.9 3.4-4 5.9-7.7 5.9h-29.3c-3.2 0-6.3-2-7.5-5.2l-6.5-17.4c-9.6-2.6-18.9-6.4-27.5-11.4l-16.5 7.5c-3 1.6-6.9 1.1-9.4-1.4l-20.7-20.7c-2.3-2.3-3-5.8-1.6-8.9l7.7-17c-5-8.6-8.8-17.8-11.4-27.5l-16.8-6.4c-3.4-.9-5.9-4-5.9-7.7v-29.3c0-3.2 2-6.3 5.2-7.5l17.4-6.5c1.3-4.9 2.9-9.6 4.8-14.1 1.9-4.7 4.1-9.1 6.6-13.4l-7.4-16.5c-1.6-3-1.1-6.9 1.4-9.4l20.7-20.6c2.3-2.3 5.8-3 8.9-1.6l17 7.7c8.6-5 17.8-8.8 27.5-11.4l6.3-16.8c.7-2.6 2.8-4.7 5.4-5.5v-121.4c0-18 14.7-32.7 32.6-32.7h222.3c18 0 32.7 14.7 32.7 32.7v167.3c4.4 4.8 8.6 9.6 13 14.3 16.4 18.1 33.4 36.7 43 51.1 5 7.5 7.9 12.4 8.5 19.2.6 6.4-1.1 13.2-5.3 24.2-4.9 13-9.8 23.5-14.1 33.1-8.7 19-15.5 33.9-18.9 60.7h6.7c4.4 0 8 3.6 8 8v29.6c0 4.4-3.6 8-8 8h-110.9c-4.4 0-8-3.6-8-8v-29.6c0-4.4 3.6-8 8-8h2.1c-5.8-25.5-14.3-48.2-18.5-59.7-1.3-3.4-2.3-6-2.8-8zm65.3-113.3c4.4 0 8 3.6 8 8s-3.6 8-8 8h-42.2c-4.4 0-8-3.6-8-8s3.6-8 8-8zm-4.9 32.2c4.4 0 8 3.6 8 8s-3.6 8-8 8h-10.5c-4.4 0-8-3.6-8-8s3.6-8 8-8zm-1.1 32.2c4.4 0 8 3.6 8 8s-3.6 8-8 8h-6c-4.4 0-8-3.6-8-8s3.6-8 8-8zm66.2-96.6c4.4 0 8 3.6 8 8s-3.6 8-8 8h-77.8c-4.4 0-8-3.6-8-8s3.6-8 8-8zm70.4 229.2h-94.9v13.6h94.9zm-59.7-101.1h-7.4c-4.4 0-8-3.6-8-8v-56c0-18.4-20.2-20-22.6-.1-3.1 25.8-8.8 53.2-8.8 78.9 0 .8.8 1.4 2.2 5 4.6 12.4 13.9 37.4 19.9 65.3h69.7c3.6-30.4 11-46.6 20.4-67.3 4.2-9.1 8.7-19.1 13.7-32.2 3.3-8.6 4.7-13.5 4.3-17-1-10.9-35.9-48.4-48.6-62.4v59c0 19.2-15.6 34.8-34.8 34.8z"/></svg>