<svg height="512" viewBox="0 0 52 60" width="512" xmlns="http://www.w3.org/2000/svg"><g id="Page-1" fill="none" fill-rule="evenodd"><g id="016---Phone-Book" fill-rule="nonzero"><path id="Shape" d="m9 1v58h-4c-2.209139 0-4-1.790861-4-4v-50c0-2.209139 1.790861-4 4-4z" fill="#ff9801"/><path id="Shape" d="m47 3v54c-.0032948 1.1032019-.8967981 1.9967052-2 2h-36v-58h36c1.1032019.0032948 1.9967052.89679813 2 2z" fill="#ffdf00"/><path id="Shape" d="m45 1h-3c1.1032019.0032948 1.9967052.89679813 2 2v54c-.0032948 1.1032019-.8967981 1.9967052-2 2h3c1.1032019-.0032948 1.9967052-.8967981 2-2v-54c-.0032948-1.10320187-.8967981-1.9967052-2-2z" fill="#fec108"/><path id="Shape" d="m47 6h1c1.6568542 0 3 1.34314575 3 3v4c0 1.6568542-1.3431458 3-3 3h-1z" fill="#f44335"/><path id="Shape" d="m47 16h1c1.6568542 0 3 1.3431458 3 3v4c0 1.6568542-1.3431458 3-3 3h-1z" fill="#f44335"/><path id="Shape" d="m47 26h1c1.6568542 0 3 1.3431458 3 3v4c0 1.6568542-1.3431458 3-3 3h-1z" fill="#f44335"/><path id="Shape" d="m47 36h1c1.6568542 0 3 1.3431458 3 3v4c0 1.6568542-1.3431458 3-3 3h-1z" fill="#f44335"/><rect id="Rectangle-path" fill="#f5f5f5" height="28" rx="2" width="28" x="14" y="6"/><path id="Shape" d="m40 6h-3c1.1045695 0 2 .8954305 2 2v24c0 1.1045695-.8954305 2-2 2h3c1.1045695 0 2-.8954305 2-2v-24c0-1.1045695-.8954305-2-2-2z" fill="#cfd8dc"/><path id="Shape" d="m37.628 26.84-2.328 2.329c-2.323 2.322-6.892-.5-11.438-5.041s-7.375-9.11-5.044-11.431l2.322-2.329c.4707294-.4809841 1.241614-.49126256 1.725-.023l3.412 3.409c.22776.2300798.3541861.5416016.3511816.8653335-.0030044.3237318-.1351906.6328535-.3671816.8586665l-1.826 1.822c-.2903127.2827621-.3294681.7356028-.092 1.064.7431895 1.0052211 1.5523024 1.9599877 2.422 2.858.8998659.8650033 1.8523494 1.6735456 2.852 2.421.3291508.2373159.782376.1982008 1.066-.092l1.824-1.823c.4707294-.4809841 1.241614-.4912626 1.725-.023l3.412 3.409c.2283786.2301603.3551968.5421145.3521912.866339-.0030055.3242245-.135585.633774-.3681912.859661z" fill="#a4c400"/><g fill="#000"><path id="Shape" d="m45 0h-40c-2.76005315.00330612-4.99669388 2.23994685-5 5v50c.00330612 2.7600532 2.23994685 4.9966939 5 5h40c1.6568542 0 3-1.3431458 3-3v-10c2.209139 0 4-1.790861 4-4v-4c-.003719-1.1531181-.5079987-2.247792-1.382-3 .8740013-.752208 1.378281-1.8468819 1.382-3v-4c-.003719-1.1531181-.5079987-2.247792-1.382-3 .8740013-.752208 1.378281-1.8468819 1.382-3v-4c-.003719-1.1531181-.5079987-2.247792-1.382-3 .8740013-.752208 1.378281-1.8468819 1.382-3v-4c0-2.209139-1.790861-4-4-4v-2c0-1.65685425-1.3431458-3-3-3zm-43 55v-50c0-1.65685425 1.34314575-3 3-3h3v56h-3c-1.65685425 0-3-1.3431458-3-3zm44 2c0 .5522847-.4477153 1-1 1h-35v-56h35c.5522847 0 1 .44771525 1 1zm4-18v4c0 1.1045695-.8954305 2-2 2v-8c1.1045695 0 2 .8954305 2 2zm0-10v4c0 1.1045695-.8954305 2-2 2v-8c1.1045695 0 2 .8954305 2 2zm0-10v4c0 1.1045695-.8954305 2-2 2v-8c1.1045695 0 2 .8954305 2 2zm0-10v4c0 1.1045695-.8954305 2-2 2v-8c1.1045695 0 2 .8954305 2 2z"/><path id="Shape" d="m40 5h-24c-1.6568542 0-3 1.34314575-3 3v24c0 1.6568542 1.3431458 3 3 3h24c1.6568542 0 3-1.3431458 3-3v-24c0-1.65685425-1.3431458-3-3-3zm1 27c0 .5522847-.4477153 1-1 1h-24c-.5522847 0-1-.4477153-1-1v-24c0-.55228475.4477153-1 1-1h24c.5522847 0 1 .44771525 1 1z"/><path id="Shape" d="m37 38h-18c-.5522847 0-1 .4477153-1 1s.4477153 1 1 1h18c.5522847 0 1-.4477153 1-1s-.4477153-1-1-1z"/><path id="Shape" d="m33 42h-10c-.5522847 0-1 .4477153-1 1s.4477153 1 1 1h10c.5522847 0 1-.4477153 1-1s-.4477153-1-1-1z"/><path id="Shape" d="m34.939 21c-.8732923-.8587774-2.2768345-.8489374-3.138.022l-1.72 1.719c-.912579-.6890694-1.7834443-1.4317091-2.608-2.224-.7968148-.824464-1.5406357-1.6985454-2.227-2.617l1.716-1.714c.4242032-.4151173.6635122-.9834762.664-1.577.004389-.5875076-.228115-1.1520057-.645-1.566l-3.411-3.406c-.8740105-.85917592-2.278785-.84798784-3.139.025l-2.322 2.326c-.7459421.737982-1.1544053 1.7509997-1.129 2.8 0 3.215 3.357 7.24 6.173 10.05 4.7 4.7 7.9 6.179 10.06 6.179 1.0475083.0204682 2.057265-.3911016 2.792-1.138l2.33-2.328c.4258095-.4182196.6654684-.9901574.665-1.587.002147-.583643-.22983-1.1437738-.644-1.555zm1.982 5.133-2.33 2.329c-1.56 1.558-5.306-.326-10.025-5.042-3.55-3.543-5.587-6.69-5.586-8.634-.0229593-.5170849.1743658-1.0196644.543-1.383l2.323-2.328c.0465271-.0471632.1097554-.0741071.176-.075.0498301-.0013228.0981058.0174111.134.052l3.411 3.41c.0383001.0380667.0595797.0900033.059.144-.0006104.0626979-.027014.1223774-.073.165l-1.825 1.829c-.6452452.6326566-.7246502 1.6444301-.186 2.37.7718653 1.0437325 1.6127458 2.0346151 2.517 2.966.9353561.8997124 1.9252294 1.7409711 2.964 2.519.7261072.5347734 1.734953.4542192 2.367-.189l1.825-1.824c.0798576-.0910195.2180886-.1008295.31-.022l3.412 3.409c.0380145.0365339.0590404.0872862.058.14-.0020429.0622935-.0286451.1212497-.074.164z"/><path id="Shape" d="m5 4c-.55228475 0-1 .44771525-1 1v2c0 .55228475.44771525 1 1 1s1-.44771525 1-1v-2c0-.55228475-.44771525-1-1-1z"/><path id="Shape" d="m5 10c-.55228475 0-1 .4477153-1 1v38c0 .5522847.44771525 1 1 1s1-.4477153 1-1v-38c0-.5522847-.44771525-1-1-1z"/><path id="Shape" d="m5 52c-.55228475 0-1 .4477153-1 1v2c0 .5522847.44771525 1 1 1s1-.4477153 1-1v-2c0-.5522847-.44771525-1-1-1z"/></g></g></g></svg>