<svg id="Capa_1" enable-background="new 0 0 512 512" height="512" viewBox="0 0 512 512" width="512" xmlns="http://www.w3.org/2000/svg"><g><g><g><path d="m346.798 452.424v-415.084c0-20.622-16.718-37.34-37.34-37.34h-267.738c-20.622 0-37.34 16.718-37.34 37.34v415.084c0 20.622 16.718 37.34 37.34 37.34h267.737c20.623 0 37.341-16.717 37.341-37.34z" fill="#8c9ba6"/><path d="m370.954 0h-63.299c20.622 0 37.34 16.718 37.34 37.34v415.084c0 20.622-16.718 37.34-37.34 37.34h63.299c20.622 0 37.34-16.718 37.34-37.34v-415.084c0-20.622-16.718-37.34-37.34-37.34z" fill="#7c8b96"/><path d="m304.558 127.73v-77.733c0-3.44-2.789-6.229-6.229-6.229h-245.909c-3.44 0-6.229 2.789-6.229 6.229v77.733c0 3.44 2.789 6.229 6.229 6.229h245.909c3.44.001 6.229-2.788 6.229-6.229z" fill="#ddeafb"/><path d="m360.254 43.768h-63.299c3.44 0 6.229 2.789 6.229 6.229v77.733c0 3.44-2.789 6.229-6.229 6.229h63.299c3.44 0 6.229-2.789 6.229-6.229v-77.733c0-3.44-2.789-6.229-6.229-6.229z" fill="#bed8fb"/><g fill="#dae4ea"><g><path d="m92.088 234.605h-38.188c-2.753 0-4.984-2.231-4.984-4.984v-38.187c0-2.753 2.231-4.984 4.984-4.984h38.187c2.753 0 4.984 2.231 4.984 4.984v38.187c.001 2.752-2.231 4.984-4.983 4.984z"/><path d="m180.983 234.605h-38.187c-2.753 0-4.984-2.231-4.984-4.984v-38.187c0-2.753 2.231-4.984 4.984-4.984h38.187c2.753 0 4.984 2.231 4.984 4.984v38.187c0 2.752-2.231 4.984-4.984 4.984z"/><path d="m269.878 234.605h-38.187c-2.753 0-4.984-2.231-4.984-4.984v-38.187c0-2.753 2.231-4.984 4.984-4.984h38.187c2.753 0 4.984 2.231 4.984 4.984v38.187c0 2.752-2.231 4.984-4.984 4.984z"/><path d="m358.773 234.605h-38.187c-2.753 0-4.984-2.231-4.984-4.984v-38.187c0-2.753 2.232-4.984 4.984-4.984h38.187c2.753 0 4.984 2.231 4.984 4.984v38.187c.001 2.752-2.231 4.984-4.984 4.984z"/></g><g><path d="m92.088 328.648h-38.188c-2.753 0-4.984-2.232-4.984-4.984v-38.187c0-2.753 2.231-4.984 4.984-4.984h38.187c2.753 0 4.984 2.231 4.984 4.984v38.187c.001 2.752-2.231 4.984-4.983 4.984z"/><path d="m180.983 328.648h-38.187c-2.753 0-4.984-2.232-4.984-4.984v-38.187c0-2.753 2.231-4.984 4.984-4.984h38.187c2.753 0 4.984 2.231 4.984 4.984v38.187c0 2.752-2.231 4.984-4.984 4.984z"/><path d="m269.878 328.648h-38.187c-2.753 0-4.984-2.232-4.984-4.984v-38.187c0-2.753 2.231-4.984 4.984-4.984h38.187c2.753 0 4.984 2.231 4.984 4.984v38.187c0 2.752-2.231 4.984-4.984 4.984z"/></g><g><path d="m92.088 422.691h-38.188c-2.753 0-4.984-2.231-4.984-4.984v-38.187c0-2.753 2.231-4.984 4.984-4.984h38.187c2.753 0 4.984 2.231 4.984 4.984v38.187c.001 2.752-2.231 4.984-4.983 4.984z"/><path d="m180.983 422.691h-38.187c-2.753 0-4.984-2.231-4.984-4.984v-38.187c0-2.753 2.231-4.984 4.984-4.984h38.187c2.753 0 4.984 2.231 4.984 4.984v38.187c0 2.752-2.231 4.984-4.984 4.984z"/><path d="m269.878 422.691h-38.187c-2.753 0-4.984-2.231-4.984-4.984v-38.187c0-2.753 2.231-4.984 4.984-4.984h38.187c2.753 0 4.984 2.231 4.984 4.984v38.187c0 2.752-2.231 4.984-4.984 4.984z"/></g></g></g><g><g><circle cx="381.81" cy="386.19" fill="#eab14d" r="125.81"/><circle cx="381.81" cy="386.19" fill="#fbe77b" r="94.788"/><path d="m381.81 291.402c-11.092 0-21.735 1.911-31.628 5.412 36.797 13.022 63.16 48.117 63.16 89.376s-26.363 76.354-63.16 89.376c9.892 3.501 20.536 5.412 31.628 5.412 52.35 0 94.788-42.438 94.788-94.788s-42.438-94.788-94.788-94.788z" fill="#ffd064"/></g><path d="m396.305 378.227c-2.466-.821-4.991-1.683-7.507-2.582v-36.852c6.786 1.351 10.838 4.599 11.176 4.878 3.221 2.752 8.066 2.395 10.849-.809 2.798-3.222 2.455-8.102-.766-10.9-.466-.405-8.366-7.099-21.259-8.81v-3.044c0-4.267-3.459-7.726-7.726-7.726s-7.726 3.459-7.726 7.726v3.604c-1.305.262-2.633.574-3.991.959-11.878 3.37-20.639 13.065-22.864 25.303-1.964 10.801 1.776 21.175 9.762 27.074 4.314 3.187 9.698 6.107 17.094 9.198v46.592c-6.857-.394-11.396-1.835-19.015-6.529-3.635-2.24-8.393-1.108-10.631 2.525s-1.108 8.393 2.525 10.631c10.566 6.51 17.738 8.379 27.121 8.83v3.977c0 4.267 3.459 7.726 7.726 7.726s7.726-3.459 7.726-7.726v-4.566c18.133-3.309 29.583-17.676 31.832-31.839 2.707-17.045-6.842-31.819-24.326-37.64zm-30.873-13.608c-3.835-2.832-4.446-7.994-3.739-11.879.902-4.959 4.441-10.977 11.652-13.128v29.681c-3-1.483-5.701-3.04-7.913-4.674zm39.937 48.823c-1.196 7.529-6.793 15.544-16.571 18.419v-39.857c.861.293 1.727.587 2.626.886 10.235 3.406 15.448 11.09 13.945 20.552z" fill="#e6b700"/></g></g></g></svg>