<?xml version="1.0" encoding="UTF-8" standalone="no"?>
<!-- Created with Inkscape (http://www.inkscape.org/) -->

<svg
   version="1.1"
   id="svg2994"
   xml:space="preserve"
   width="682.66669"
   height="682.66669"
   viewBox="0 0 682.66669 682.66669"
   xmlns="http://www.w3.org/2000/svg"
   xmlns:svg="http://www.w3.org/2000/svg"><defs
     id="defs2998"><clipPath
       clipPathUnits="userSpaceOnUse"
       id="clipPath3008"><path
         d="M 0,512 H 512 V 0 H 0 Z"
         id="path3006" /></clipPath></defs><g
     id="g3000"
     transform="matrix(1.3333333,0,0,-1.3333333,0,682.66667)"><g
       id="g3002"><g
         id="g3004"
         clip-path="url(#clipPath3008)"><g
           id="g3010"
           transform="translate(10,82)"><path
             d="m 0,0 v -40 c 0,-17.673 14.327,-32 32,-32 h 428 c 17.673,0 32,14.327 32,32 V 0 Z"
             style="fill:#e1e3e9;fill-opacity:1;fill-rule:nonzero;stroke:none"
             id="path3012" /></g><g
           id="g3014"
           transform="translate(10,330)"><path
             d="m 0,0 v -248 c 0,-17.673 14.327,-32 32,-32 h 428 c 17.673,0 32,14.327 32,32 V 0"
             style="fill:#ffffff;fill-opacity:1;fill-rule:nonzero;stroke:none"
             id="path3016" /></g><g
           id="g3018"
           transform="translate(472,450)"><path
             d="m 0,0 h -432 c -16.568,0 -30,-13.432 -30,-30 v -90 H 30 v 90 C 30,-13.432 16.568,0 0,0"
             style="fill:#f5737f;fill-opacity:1;fill-rule:nonzero;stroke:none"
             id="path3020" /></g><g
           id="g3022"
           transform="translate(85.9482,402)"><path
             d="M 0,0 V 0 C -12.122,0 -21.948,9.827 -21.948,21.948 V 78.052 C -21.948,90.173 -12.122,100 0,100 12.122,100 21.948,90.173 21.948,78.052 V 21.948 C 21.948,9.827 12.122,0 0,0"
             style="fill:#e1e3e9;fill-opacity:1;fill-rule:nonzero;stroke:none"
             id="path3024" /></g><g
           id="g3026"
           transform="translate(426.0518,402)"><path
             d="M 0,0 V 0 C -12.122,0 -21.948,9.827 -21.948,21.948 V 78.052 C -21.948,90.173 -12.122,100 0,100 12.122,100 21.948,90.173 21.948,78.052 V 21.948 C 21.948,9.827 12.122,0 0,0"
             style="fill:#e1e3e9;fill-opacity:1;fill-rule:nonzero;stroke:none"
             id="path3028" /></g><g
           id="g3030"
           transform="translate(256.127,402)"><path
             d="M 0,0 V 0 C -12.122,0 -21.948,9.827 -21.948,21.948 V 78.052 C -21.948,90.173 -12.122,100 0,100 12.122,100 21.948,90.173 21.948,78.052 V 21.948 C 21.948,9.827 12.122,0 0,0"
             style="fill:#e1e3e9;fill-opacity:1;fill-rule:nonzero;stroke:none"
             id="path3032" /></g><g
           id="g3034"
           transform="translate(232.6675,450)"><path
             d="M 0,0 H -119.667"
             style="fill:none;stroke:#000000;stroke-width:20;stroke-linecap:round;stroke-linejoin:round;stroke-miterlimit:10;stroke-dasharray:none;stroke-opacity:1"
             id="path3036" /></g><g
           id="g3038"
           transform="translate(400.333,450)"><path
             d="M 0,0 H -119.667"
             style="fill:none;stroke:#000000;stroke-width:20;stroke-linecap:round;stroke-linejoin:round;stroke-miterlimit:10;stroke-dasharray:none;stroke-opacity:1"
             id="path3040" /></g><g
           id="g3042"
           transform="translate(63.9995,450)"><path
             d="m 0,0 h -22 c -17.673,0 -32,-14.327 -32,-32 v -376 c 0,-17.673 14.327,-32 32,-32 h 428 c 17.674,0 32,14.327 32,32 v 376 c 0,17.673 -14.326,32 -32,32 h -20"
             style="fill:none;stroke:#000000;stroke-width:20;stroke-linecap:round;stroke-linejoin:round;stroke-miterlimit:10;stroke-dasharray:none;stroke-opacity:1"
             id="path3044" /></g><g
           id="g3046"
           transform="translate(301,330)"><path
             d="M 0,0 H 201"
             style="fill:none;stroke:#000000;stroke-width:20;stroke-linecap:round;stroke-linejoin:round;stroke-miterlimit:10;stroke-dasharray:none;stroke-opacity:1"
             id="path3048" /></g><g
           id="g3050"
           transform="translate(10,330)"><path
             d="M 0,0 H 201"
             style="fill:none;stroke:#000000;stroke-width:20;stroke-linecap:round;stroke-linejoin:round;stroke-miterlimit:10;stroke-dasharray:none;stroke-opacity:1"
             id="path3052" /></g><g
           id="g3054"
           transform="translate(85.9482,402)"><path
             d="M 0,0 V 0 C -12.122,0 -21.948,9.827 -21.948,21.948 V 78.052 C -21.948,90.173 -12.122,100 0,100 12.122,100 21.948,90.173 21.948,78.052 V 21.948 C 21.948,9.827 12.122,0 0,0 Z"
             style="fill:none;stroke:#000000;stroke-width:20;stroke-linecap:round;stroke-linejoin:round;stroke-miterlimit:10;stroke-dasharray:none;stroke-opacity:1"
             id="path3056" /></g><g
           id="g3058"
           transform="translate(426.0518,402)"><path
             d="M 0,0 V 0 C -12.122,0 -21.948,9.827 -21.948,21.948 V 78.052 C -21.948,90.173 -12.122,100 0,100 12.122,100 21.948,90.173 21.948,78.052 V 21.948 C 21.948,9.827 12.122,0 0,0 Z"
             style="fill:none;stroke:#000000;stroke-width:20;stroke-linecap:round;stroke-linejoin:round;stroke-miterlimit:10;stroke-dasharray:none;stroke-opacity:1"
             id="path3060" /></g><g
           id="g3062"
           transform="translate(256.127,402)"><path
             d="M 0,0 V 0 C -12.122,0 -21.948,9.827 -21.948,21.948 V 78.052 C -21.948,90.173 -12.122,100 0,100 12.122,100 21.948,90.173 21.948,78.052 V 21.948 C 21.948,9.827 12.122,0 0,0 Z"
             style="fill:none;stroke:#000000;stroke-width:20;stroke-linecap:round;stroke-linejoin:round;stroke-miterlimit:10;stroke-dasharray:none;stroke-opacity:1"
             id="path3064" /></g><g
           id="g3066"
           transform="translate(10,330)"><path
             d="m 0,0 v -248 c 0,-17.673 14.327,-32 32,-32 h 428 c 17.673,0 32,14.327 32,32 V 0"
             style="fill:none;stroke:#000000;stroke-width:20;stroke-linecap:round;stroke-linejoin:round;stroke-miterlimit:10;stroke-dasharray:none;stroke-opacity:1"
             id="path3068" /></g><g
           id="g3070"
           transform="translate(256,330)"><path
             d="M 0,0 V 0"
             style="fill:none;stroke:#000000;stroke-width:20;stroke-linecap:round;stroke-linejoin:round;stroke-miterlimit:10;stroke-dasharray:none;stroke-opacity:1"
             id="path3072" /></g><g
           id="g3074"
           transform="translate(267.6621,268.8115)"><path
             d="m 0,0 19.476,-39.463 43.55,-6.328 c 10.626,-1.544 14.869,-14.603 7.18,-22.098 l -31.513,-30.717 7.439,-43.374 c 1.815,-10.583 -9.293,-18.654 -18.797,-13.658 l -38.953,20.479 -38.952,-20.479 c -9.504,-4.996 -20.612,3.075 -18.797,13.658 l 7.439,43.374 -31.513,30.717 c -7.689,7.495 -3.446,20.554 7.18,22.098 l 43.55,6.328 L -23.235,0 C -18.483,9.629 -4.752,9.629 0,0"
             style="fill:#ffcb7c;fill-opacity:1;fill-rule:nonzero;stroke:none"
             id="path3076" /></g><g
           id="g3078"
           transform="translate(267.6621,268.8115)"><path
             d="m 0,0 19.476,-39.463 43.55,-6.328 c 10.626,-1.544 14.869,-14.603 7.18,-22.098 l -31.513,-30.717 7.439,-43.374 c 1.815,-10.583 -9.293,-18.654 -18.797,-13.658 l -38.953,20.479 -38.952,-20.479 c -9.504,-4.996 -20.612,3.075 -18.797,13.658 l 7.439,43.374 -31.513,30.717 c -7.689,7.495 -3.446,20.554 7.18,22.098 l 43.55,6.328 L -23.235,0 C -18.483,9.629 -4.752,9.629 0,0 Z"
             style="fill:none;stroke:#000000;stroke-width:20;stroke-linecap:round;stroke-linejoin:round;stroke-miterlimit:10;stroke-dasharray:none;stroke-opacity:1"
             id="path3080" /></g></g></g></g></svg>
