<svg id="svg8" height="512" viewBox="0 0 33.866666 33.866668" width="512" xmlns="http://www.w3.org/2000/svg" xmlns:xlink="http://www.w3.org/1999/xlink" xmlns:svg="http://www.w3.org/2000/svg"><linearGradient id="linearGradient2202"><stop id="stop2198" offset="0" stop-color="#f6f600"/><stop id="stop2200" offset="1" stop-color="#f69134"/></linearGradient><linearGradient id="linearGradient3363" gradientUnits="userSpaceOnUse" x1="-180.440378" x2="-180.440378" xlink:href="#linearGradient2202" y1="97.375304" y2="99.607314"/><linearGradient id="linearGradient9584" gradientTransform="matrix(.707 .707 -.707 .707 -29.591 -8.539)" gradientUnits="userSpaceOnUse" x1="18.263" x2="22.255" y1="12.529" y2="12.529"><stop id="stop3724" offset="0" stop-color="#f5f8ff"/><stop id="stop3726" offset="1" stop-color="#a0c9ff"/></linearGradient><linearGradient id="linearGradient3335" gradientUnits="userSpaceOnUse" x1="16.933" x2="16.933" xlink:href="#linearGradient2202" y1="1.058" y2="3.704"/><g id="layer1" stroke-dasharray=".322 1.286" stroke-linecap="square" stroke-width=".322"><path id="path9456" d="m32.814895 12.97549c0 1.08289-.87202 1.95492-1.95492 1.95492h-12.530856v-3.90932h12.530856c1.0829 0 1.95492.87151 1.95492 1.9544z" fill="#ff005d" paint-order="markers fill stroke"/><path id="path9458" d="m24.690158 28.71407c0 1.08289-.87202 1.95492-1.95492 1.95492h-4.406119v-3.90984h4.406119c1.0829 0 1.95492.87203 1.95492 1.95492z" fill="#00a1ff" paint-order="markers fill stroke"/><path id="path9460" d="m31.49757 20.84478c0 1.08289-.87202 1.95492-1.95492 1.95492h-11.213531v-3.90932h11.213531c1.0829 0 1.95492.87151 1.95492 1.9544z" fill="#ffb43f" paint-order="markers fill stroke"/><path id="path9462" d="m26.656772 5.10673c0 1.08289-.8715 1.95491-1.9544 1.95491h-6.373253v-3.90932h6.373253c1.0829 0 1.9544.87152 1.9544 1.95441z" fill="#59d96b" paint-order="markers fill stroke"/><path id="path9448" d="m4.1482234 12.97549c0 1.08289.87202 1.95492 1.95492 1.95492h9.4137336v-3.90932h-9.4137336c-1.0829 0-1.95492.87151-1.95492 1.9544z" fill="#ff005d" paint-order="markers fill stroke"/><path id="path9452" d="m3.6834951 28.71407c0 1.08289.87202 1.95492 1.95492 1.95492h9.8784619v-3.90984h-9.8784619c-1.0829 0-1.95492.87203-1.95492 1.95492z" fill="#00a1ff" paint-order="markers fill stroke"/><path id="path5768" d="m8.9751651 20.84478c0 1.08289.87202 1.95492 1.9549199 1.95492h4.586792v-3.90932h-4.586792c-1.0828999 0-1.9549199.87151-1.9549199 1.9544z" fill="#ffb43f" paint-order="markers fill stroke"/><path id="path5772" d="m1.0376618 5.10673c0 1.08289.8715 1.95491 1.9544 1.95491h12.5248152v-3.90932h-12.5248152c-1.0829 0-1.9544.87152-1.9544 1.95441z" fill="#59d96b" paint-order="markers fill stroke"/><path id="path5776" d="m18.888003 3.00307v27.86041c0 1.0829-.87178 1.9547-1.95467 1.9547s-1.95467-.8718-1.95467-1.9547v-27.86041c0-1.0829.87178-1.9546 1.95467-1.9546s1.95467.8717 1.95467 1.9546z" fill="#c0e0ff" paint-order="markers fill stroke"/></g></svg>