<svg height="512" viewBox="0 0 512 512" width="512" xmlns="http://www.w3.org/2000/svg"><g id="_43_Kanban" data-name="43 Kanban"><g fill="#4a5058"><rect height="64.17" rx="21.15" width="140" x="11" y="50.38"/><rect height="64.17" rx="21.15" width="140" x="186" y="50.38"/><rect height="64.17" rx="21.15" width="140" x="361" y="50.38"/></g><rect fill="#74d1d1" height="93.33" rx="21.15" width="140" x="11" y="134.96"/><rect fill="#f5d367" height="93.33" rx="21.15" width="140" x="186" y="134.96"/><rect fill="#e9986b" height="93.33" rx="21.15" width="140" x="361" y="134.96"/><rect fill="#f17b89" height="93.33" rx="21.15" width="140" x="11" y="251.63"/><rect fill="#f5d367" height="93.33" rx="21.15" width="140" x="186" y="251.63"/><rect fill="#f17b89" height="93.33" rx="21.15" width="140" x="361" y="251.63"/><rect fill="#74d1d1" height="93.33" rx="21.15" width="140" x="11" y="368.29"/><rect fill="#e9986b" height="93.33" rx="21.15" width="140" x="186" y="368.29"/><rect fill="#f17b89" height="93.33" rx="21.15" width="140" x="361" y="368.29"/><path d="m75.25 345h-43.1a21.15 21.15 0 0 1 -21.15-21.19v-51a21.13 21.13 0 0 1 12.22-19.17 498.76 498.76 0 0 0 52.03 91.36z" fill="#d36e7f"/><path d="m151 428.67v11.8a21.16 21.16 0 0 1 -21.16 21.16h-97.69a21.15 21.15 0 0 1 -21.15-21.16v-51a21.16 21.16 0 0 1 21.15-21.16h60.91a501.74 501.74 0 0 0 57.94 60.36z" fill="#6cbcba"/></g></svg>