<?xml version="1.0" encoding="UTF-8" standalone="no"?>
<!-- Created with Inkscape (http://www.inkscape.org/) -->

<svg
   version="1.1"
   id="svg3765"
   xml:space="preserve"
   width="682.66669"
   height="682.66669"
   viewBox="0 0 682.66669 682.66669"
   xmlns="http://www.w3.org/2000/svg"
   xmlns:svg="http://www.w3.org/2000/svg"><defs
     id="defs3769"><clipPath
       clipPathUnits="userSpaceOnUse"
       id="clipPath3779"><path
         d="M 0,512 H 512 V 0 H 0 Z"
         id="path3777" /></clipPath></defs><g
     id="g3771"
     transform="matrix(1.3333333,0,0,-1.3333333,0,682.66667)"><g
       id="g3773"><g
         id="g3775"
         clip-path="url(#clipPath3779)"><g
           id="g3781"
           transform="translate(494.5,341.0088)"><path
             d="m 0,0 h -477 c -5.523,0 -10,-4.478 -10,-10 v -313.509 c 0,-5.523 4.477,-10 10,-10 h 219.378 c 4.383,5.771 11.316,9.5 19.122,9.5 7.806,0 14.739,-3.729 19.122,-9.5 H 0 c 5.523,0 10,4.477 10,10 V -10 C 10,-4.478 5.523,0 0,0"
             style="fill:#6e9eff;fill-opacity:1;fill-rule:nonzero;stroke:none"
             id="path3783" /></g><g
           id="g3785"
           transform="translate(494.5,341.0088)"><path
             d="m 0,0 h -40 c 5.523,0 10,-4.478 10,-10 v -313.509 c 0,-5.523 -4.477,-10 -10,-10 H 0 c 5.523,0 10,4.477 10,10 V -10 C 10,-4.478 5.523,0 0,0"
             style="fill:#5990ff;fill-opacity:1;fill-rule:nonzero;stroke:none"
             id="path3787" /></g><path
           d="M 471.852,38.582 H 40.148 V 294 h 431.704 z"
           style="fill:#c5d7e6;fill-opacity:1;fill-rule:nonzero;stroke:none"
           id="path3789" /><g
           id="g3791"
           transform="translate(256,350.3013)"><path
             d="m 0,0 v -308.469 c 0,0 -81.352,67.317 -215.852,20 V 0 c 0,0 108.468,50.989 215.852,0"
             style="fill:#e4ecf2;fill-opacity:1;fill-rule:nonzero;stroke:none"
             id="path3793" /></g><g
           id="g3795"
           transform="translate(256,345.3843)"><path
             d="M 0,0 C 0,0 -46.85,105.068 -165.852,130 V -173.552 C -46.85,-198.483 0,-303.552 0,-303.552 Z"
             style="fill:#f0f5fa;fill-opacity:1;fill-rule:nonzero;stroke:none"
             id="path3797" /></g><g
           id="g3799"
           transform="translate(256.0078,345.3843)"><path
             d="M 0,0 C 0,0 3.142,134.184 -115.86,159.116 V -144.437 C 3.142,-169.368 0,-303.552 0,-303.552 Z"
             style="fill:#e4ecf2;fill-opacity:1;fill-rule:nonzero;stroke:none"
             id="path3801" /></g><g
           id="g3803"
           transform="translate(256,350.3013)"><path
             d="m 0,0 v -308.469 c 0,0 81.352,67.317 215.852,20 V 0 C 215.852,0 107.384,50.989 0,0"
             style="fill:#e4ecf2;fill-opacity:1;fill-rule:nonzero;stroke:none"
             id="path3805" /></g><g
           id="g3807"
           transform="translate(256.0156,345.3843)"><path
             d="m 0,0 c 0,0 65.325,70 185.853,70 v -303.552 c -120.528,0 -185.853,-70 -185.853,-70 z"
             style="fill:#f0f5fa;fill-opacity:1;fill-rule:nonzero;stroke:none"
             id="path3809" /></g><g
           id="g3811"
           transform="translate(7.5,56)"><path
             d="m 0,0 v -38.5 c 0,-5.523 4.477,-10 10,-10 h 219.378 c 4.383,5.771 11.316,9.5 19.122,9.5 7.806,0 14.739,-3.729 19.122,-9.5 H 487 c 5.523,0 10,4.477 10,10 v 313.509 c 0,5.522 -4.477,10 -10,10 h -17.188"
             style="fill:none;stroke:#060606;stroke-width:15;stroke-linecap:round;stroke-linejoin:round;stroke-miterlimit:10;stroke-dasharray:none;stroke-opacity:1"
             id="path3813" /></g><g
           id="g3815"
           transform="translate(40.1479,341.0088)"><path
             d="m 0,0 h -22.648 c -5.523,0 -10,-4.478 -10,-10 v -229.344"
             style="fill:none;stroke:#060606;stroke-width:15;stroke-linecap:round;stroke-linejoin:round;stroke-miterlimit:10;stroke-dasharray:none;stroke-opacity:1"
             id="path3817" /></g><g
           id="g3819"
           transform="translate(471.8521,294)"><path
             d="M 0,0 V -255.418 H -431.704 V 0"
             style="fill:none;stroke:#060606;stroke-width:15;stroke-linecap:round;stroke-linejoin:round;stroke-miterlimit:10;stroke-dasharray:none;stroke-opacity:1"
             id="path3821" /></g><g
           id="g3823"
           transform="translate(256,41.832)"><path
             d="m 0,0 c 0,0 -81.352,67.317 -215.852,20 v 288.469 c 0,0 19.436,9.137 49.999,15.807"
             style="fill:none;stroke:#060606;stroke-width:15;stroke-linecap:round;stroke-linejoin:round;stroke-miterlimit:10;stroke-dasharray:none;stroke-opacity:1"
             id="path3825" /></g><g
           id="g3827"
           transform="translate(140.1489,458.8115)"><path
             d="m 0,0 c -15.013,6.977 -31.649,12.728 -50.001,16.573 v -303.552 c 119.002,-24.932 165.852,-130 165.852,-130"
             style="fill:none;stroke:#060606;stroke-width:15;stroke-linecap:round;stroke-linejoin:round;stroke-miterlimit:10;stroke-dasharray:none;stroke-opacity:1"
             id="path3829" /></g><g
           id="g3831"
           transform="translate(256.0078,345.3843)"><path
             d="M 0,0 C 0,0 3.142,134.184 -115.86,159.116 V -144.437 C 3.142,-169.368 0,-303.552 0,-303.552 Z"
             style="fill:none;stroke:#060606;stroke-width:15;stroke-linecap:round;stroke-linejoin:round;stroke-miterlimit:10;stroke-dasharray:none;stroke-opacity:1"
             id="path3833" /></g><g
           id="g3835"
           transform="translate(256,41.832)"><path
             d="m 0,0 c 0,0 81.352,67.317 215.852,20 v 288.469 c 0,0 -11.207,5.268 -29.983,10.725"
             style="fill:none;stroke:#060606;stroke-width:15;stroke-linecap:round;stroke-linejoin:round;stroke-miterlimit:10;stroke-dasharray:none;stroke-opacity:1"
             id="path3837" /></g><g
           id="g3839"
           transform="translate(441.8682,285)"><path
             d="m 0,0 v -173.168 c -120.528,0 -185.853,-70 -185.853,-70 V 60.384 c 0,0 65.325,70 185.853,70 V 46"
             style="fill:none;stroke:#060606;stroke-width:15;stroke-linecap:round;stroke-linejoin:round;stroke-miterlimit:10;stroke-dasharray:none;stroke-opacity:1"
             id="path3841" /></g></g></g></g></svg>
