<svg id="Capa_1" enable-background="new 0 0 511.997 511.997" height="512" viewBox="0 0 511.997 511.997" width="512" xmlns="http://www.w3.org/2000/svg"><g><g><path d="m226.284 389.068-103.361-103.362c-7.445-7.445-5.098-20.053 4.533-24.318l61.365-27.14c5.664-2.51 12.29-1.273 16.674 3.111l69.143 69.144c4.384 4.384 5.622 11.01 3.111 16.674l-27.14 61.365c-4.241 9.577-16.833 12.017-24.325 4.526z" fill="#47568c"/></g><path d="m226.284 389.068-51.677-51.677 65.459-65.459 34.572 34.572c4.384 4.384 5.622 11.01 3.111 16.674l-27.14 61.365c-4.241 9.576-16.833 12.016-24.325 4.525z" fill="#29376d"/><g><g><path d="m394.957 394.874-26.581 26.581c-5.855 5.855-15.359 5.855-21.214 0l-40.715-40.715-2.614-22.259 38.174-105.203c1.428-2.913 3.769-5.282 6.661-6.76l98.56-50.079c4.547-2.312 9.971-2.15 14.376.431 4.412 2.588 7.199 7.241 7.404 12.339 2.136 52.936-13.287 105.738-43.425 148.675-9.815 13.972-20.408 26.772-30.626 36.99z" fill="#ff3053"/></g></g><g><g><path d="m258.721 169.991-99.775 35.315-27.688.244-40.714-40.714c-5.862-5.862-5.855-15.359 0-21.214l26.581-26.581c10.218-10.218 23.017-20.811 36.99-30.626 42.937-30.138 95.739-45.561 148.674-43.425 5.098.205 9.751 2.991 12.339 7.404 2.581 4.405 2.737 9.822.424 14.383l-50.079 98.546c-1.47 2.899-3.839 5.24-6.752 6.668z" fill="#ff645a"/></g></g><g><path d="m503.44 145.627c-10.19 35.13-51.621 10.99-77.561 36.92l-57.785 43.683-52.812 103.304-20.599 39.437c-30.226-30.226-6.95-6.95-75.834-75.824-70.641-70.641-87.461-87.471-87.59-87.6l10.61-10.6 131.17-131.17c25.93-25.94 58.2-45.03 93.33-55.22 35.28-10.24 72.76-11.31 108.41-3.1 10.71 2.47 17.1 4.75 17.79 5 4.125 1.5 7.438 4.756 8.97 8.97.25.69 2.53 7.08 5 17.79 8.211 35.65 7.141 73.13-3.099 108.41z" fill="#dfe7f4"/></g><g><path d="m137.419 395.793-51.67 51.67c-5.862 5.862-15.359 5.855-21.214 0-5.862-5.862-5.862-15.352 0-21.214l51.67-51.67c5.862-5.862 15.352-5.862 21.214 0 5.855 5.855 5.862 15.352 0 21.214z" fill="#fabe2c"/></g><g><path d="m2.174 367.96c-4.294-7.085-2.032-16.31 5.054-20.604l62.497-37.876c7.087-4.294 16.312-2.025 20.604 5.054 4.294 7.085 2.032 16.31-5.054 20.604l-62.497 37.876c-7.069 4.283-16.295 2.05-20.604-5.054z" fill="#fabe2c"/></g><g><path d="m138.983 489.219 37.876-62.497c4.294-7.085 13.518-9.347 20.604-5.054 7.085 4.297 9.347 13.518 5.053 20.604l-37.876 62.497c-4.294 7.085-13.518 9.347-20.604 5.053-7.11-4.312-9.332-13.541-5.053-20.603z" fill="#ff9100"/></g><path d="m503.44 145.627c-10.19 35.13-29.28 67.4-55.22 93.33l-115.15 115.15-16.02 16.02-10.6 10.61c-30.226-30.226-18.716-18.717-87.6-87.59l279.2-279.2c1.53 1.53 2.73 3.39 3.49 5.48.25.69 2.53 7.08 5 17.79 8.21 35.65 7.14 73.13-3.1 108.41z" fill="#b6c0d1"/><path d="m137.419 395.793-51.67 51.67c-5.862 5.862-15.359 5.855-21.214 0l72.884-72.884c5.855 5.855 5.862 15.352 0 21.214z" fill="#ff9100"/><path d="m390.375 177.812c-15.522 15.522-40.681 15.522-56.196.007-15.521-15.522-15.522-40.681 0-56.203 15.514-15.515 40.674-15.514 56.196.007 15.514 15.515 15.514 40.674 0 56.189z" fill="#4793ff"/><path d="m390.375 177.812c-15.522 15.522-40.681 15.522-56.196.007l56.196-56.196c15.514 15.515 15.514 40.674 0 56.189z" fill="#525cdd"/></g></svg>